<?xml version="1.0" encoding="utf-8"?>
<!-- Generator: Adobe Illustrator 17.0.0, SVG Export Plug-In . SVG Version: 6.00 Build 0)  -->
<!DOCTYPE svg PUBLIC "-//W3C//DTD SVG 1.1//EN" "http://www.w3.org/Graphics/SVG/1.1/DTD/svg11.dtd">
<svg version="1.1" id="Layer_1" xmlns="http://www.w3.org/2000/svg" xmlns:xlink="http://www.w3.org/1999/xlink" x="0px" y="0px"
	 width="50px" height="50px" viewBox="0 0 50 50" enable-background="new 0 0 50 50" xml:space="preserve">
<path fill="#1DA1F2" d="M25,4.063C12.415,4.063,2.063,12.925,2.063,24c0,6.426,3.561,12.092,8.938,15.719
	c-0.008,0.213,0.001,0.547-0.281,1.594c-0.349,1.293-1.036,3.123-2.469,5.156l-1.031,1.438L9,47.938
	c6.176,0.027,9.755-4.033,10.313-4.688c1.824,0.405,3.721,0.688,5.688,0.688c12.584,0,22.938-8.863,22.938-19.938
	S37.584,4.063,25,4.063z M25,5.938c11.716,0,21.063,8.151,21.063,18.063S36.716,42.063,25,42.063c-2.002,0-3.948-0.241-5.781-0.688
	l-0.563-0.125l-0.375,0.469c0,0-2.89,3.258-7.5,4.031c0.831-1.492,1.464-2.878,1.75-3.938c0.399-1.479,0.406-2.5,0.406-2.5v-0.5
	L12.5,38.531C7.273,35.218,3.938,29.943,3.938,24C3.938,14.089,13.283,5.938,25,5.938z"/>
</svg>
