<?xml version="1.0" encoding="utf-8"?>
<!-- Generator: Adobe Illustrator 17.0.0, SVG Export Plug-In . SVG Version: 6.00 Build 0)  -->
<!DOCTYPE svg PUBLIC "-//W3C//DTD SVG 1.1//EN" "http://www.w3.org/Graphics/SVG/1.1/DTD/svg11.dtd">
<svg version="1.1" id="Layer_2" xmlns="http://www.w3.org/2000/svg" xmlns:xlink="http://www.w3.org/1999/xlink" x="0px" y="0px"
	 width="50px" height="50px" viewBox="51 51 50 50" enable-background="new 51 51 50 50" xml:space="preserve">
<g>
	<path fill="#1DA1F2" d="M56.167,53.831c-2.854,0-5.167,2.313-5.167,5.167c0,2.854,2.313,5.167,5.167,5.167s5.167-2.313,5.167-5.167
		C61.335,56.144,59.021,53.831,56.167,53.831z M56.167,62.034c-1.677,0-3.036-1.359-3.036-3.036s1.359-3.036,3.036-3.036
		s3.036,1.359,3.036,3.036C59.203,60.675,57.844,62.034,56.167,62.034z"/>
	<rect x="64.168" y="58.248" fill="#1DA1F2" width="36.832" height="1.854"/>
	<path fill="#1DA1F2" d="M56.167,70.832C53.313,70.832,51,73.146,51,76s2.313,5.167,5.167,5.167s5.167-2.313,5.167-5.167
		S59.021,70.832,56.167,70.832z M56.167,79.036c-1.677,0-3.036-1.359-3.036-3.036c0-1.677,1.359-3.036,3.036-3.036
		s3.036,1.359,3.036,3.036C59.203,77.677,57.844,79.036,56.167,79.036z"/>
	<rect x="64.168" y="75.25" fill="#1DA1F2" width="36.832" height="1.854"/>
	<path fill="#1DA1F2" d="M56.167,87.835c-2.854,0-5.167,2.313-5.167,5.167c0,2.854,2.313,5.167,5.167,5.167s5.167-2.313,5.167-5.167
		C61.335,90.148,59.021,87.835,56.167,87.835z M56.167,96.038c-1.677,0-3.036-1.359-3.036-3.036c0-1.677,1.359-3.036,3.036-3.036
		s3.036,1.359,3.036,3.036C59.203,94.679,57.844,96.038,56.167,96.038z"/>
	<rect x="64.168" y="92.252" fill="#1DA1F2" width="36.832" height="1.854"/>
</g>
</svg>
