<?xml version="1.0" encoding="utf-8"?>
<!-- Generator: Adobe Illustrator 17.0.0, SVG Export Plug-In . SVG Version: 6.00 Build 0)  -->
<!DOCTYPE svg PUBLIC "-//W3C//DTD SVG 1.1//EN" "http://www.w3.org/Graphics/SVG/1.1/DTD/svg11.dtd">
<svg version="1.1" id="Layer_1" xmlns="http://www.w3.org/2000/svg" xmlns:xlink="http://www.w3.org/1999/xlink" x="0px" y="0px"
	 width="50px" height="50px" viewBox="0 0 50 50" enable-background="new 0 0 50 50" xml:space="preserve">
<path fill="#1DA1F2" d="M25,3.719c-5.477,0-9.898,4.421-9.898,9.898v5.939c0,3.206,1.571,6.083,3.959,7.887v4.485
	c0,0.103-0.021,0.193-0.278,0.433s-0.721,0.562-1.33,0.866c-1.218,0.609-2.976,1.235-4.763,2.103s-3.639,1.966-5.073,3.557
	s-2.413,3.72-2.413,6.403v0.99h0.99h37.612h0.99v-0.99c0-2.706-0.977-4.845-2.413-6.434c-1.435-1.589-3.285-2.671-5.073-3.526
	s-3.549-1.499-4.763-2.103c-0.607-0.302-1.074-0.594-1.33-0.835c-0.256-0.241-0.278-0.339-0.278-0.464v-4.485
	c2.388-1.804,3.959-4.682,3.959-7.887v-5.939C34.898,8.14,30.477,3.719,25,3.719z M25,5.699c4.421,0,7.918,3.497,7.918,7.918v5.939
	c0,2.728-1.425,5.188-3.526,6.588l-0.433,0.309v0.526v4.949c0,0.766,0.395,1.444,0.897,1.918c0.502,0.474,1.133,0.831,1.825,1.175
	c1.383,0.688,3.087,1.301,4.763,2.103s3.291,1.775,4.454,3.062c0.965,1.068,1.529,2.434,1.732,4.114H7.368
	c0.205-1.658,0.768-3.013,1.732-4.083c1.165-1.292,2.777-2.278,4.454-3.093s3.383-1.444,4.763-2.134
	c0.69-0.345,1.324-0.709,1.825-1.175s0.897-1.124,0.897-1.887V26.98v-0.526l-0.433-0.309c-2.101-1.401-3.526-3.861-3.526-6.588
	v-5.939C17.082,9.196,20.579,5.699,25,5.699z"/>
</svg>
